<?xml version="1.0" encoding="utf-8"?>
<!-- Generator: Adobe Illustrator 16.0.3, SVG Export Plug-In . SVG Version: 6.00 Build 0)  -->
<!DOCTYPE svg PUBLIC "-//W3C//DTD SVG 1.1//EN" "http://www.w3.org/Graphics/SVG/1.1/DTD/svg11.dtd">
<svg version="1.1" id="Layer_1" xmlns="http://www.w3.org/2000/svg" xmlns:xlink="http://www.w3.org/1999/xlink" x="0px" y="0px"
	 width="1280px" height="241px" viewBox="0 0 1280 241" enable-background="new 0 0 1280 241" xml:space="preserve">
<g>
	<path d="M131.186,82.605l-27.609,125.689c0,0,0.436,2.182,2.76,1.309l27.608-125.984C133.945,83.619,133.51,80.575,131.186,82.605z
		"/>
	<path d="M99.146,88.928c-0.237,0.405-0.562,0.975-0.952,1.271c-0.697,0.53-1.667,0.846-2.428,0.277
		c-1.985-1.486,0.091-5.125,1.326-6.361c2.892-2.899,6.952-4.892,10.504-6.837c9.337-5.117,19.545-8.878,30.34-8.651
		c10.453,0.217,24.593,4.026,29.409,14.379c1.056,2.272,1.982,5.332,1.982,7.86c0,6.687-4.75,13.699-9.045,18.223
		c-6.163,6.491-13.898,11.819-22.236,15.234c-4.614,1.893-10.028,3.668-15.005,4.213c-2.152,0.237-17.753,0.626-12.679-4.979
		c3.397-3.753,8.874-5.522,13.478-7.225c5.572-2.063,11.419-3.455,17.297-4.298c3.483-0.5,7.018-0.766,10.536-0.766
		c11.479,0,23.134,4.529,30.135,13.91c2.2,2.95,4.127,6.277,5.706,9.603c2.464,5.188,2.43,12.732,0.608,18.059
		c-1.836,5.369-5.284,10.197-9.209,14.243c-7.284,7.51-16.328,13.05-25.89,17.17c-2.83,1.219-5.713,2.319-8.587,3.427
		c-7.688,2.966-15.688,5.842-23.823,7.286c-9.651,1.71-24.796,6.453-42.618-0.599c-3.864-1.527-7.205-4.042-9.349-7.642
		c-4.262-7.152-3.99-17.112-1.231-24.751c2.759-7.635,14.6-13.168,22.193-15.179c10.252-2.713,15.448-2.82,26.427-2.833
		c10.399-0.016,18.912,3.047,27.592,8.7c-10.14-3.387-20.341-6.03-31.089-6.396c-8.342-0.281-16.489,1.116-24.51,3.58
		c-4.008,1.23-7.031,3.328-10.461,5.776c-5.971,4.256-9.346,10.253-8.719,17.655c1.479,17.445,19.131,23.655,34.125,22.175
		c16.557-1.636,33.208-7.61,48.341-14.316c4.377-1.939,8.678-4.063,12.837-6.437c10.864-6.196,22.616-16.311,22.349-29.967
		c-0.366-18.688-15.26-29.649-32.687-31.378c-1.581-0.156-3.169-0.235-4.756-0.235c-5.667,0-35.745,6.321-35.745,11.553
		c0,2.927,11.562,0.006,12.446-0.211c7.522-1.847,15.081-4.419,21.778-8.36c3.684-2.167,6.899-4.951,10.021-7.885
		c5.631-5.294,11.313-12.915,8.386-20.858c-3.862-10.479-13.958-16.393-24.781-16.856c-4.254-0.182-9.167-0.017-13.313,1.047
		c-7.852,2.019-16.314,5.352-23.302,9.418c-1.721,1.003-3.921,2.036-5.271,3.54C98.567,85.299,97.225,88.938,99.146,88.928z"/>
</g>
<path d="M180.5,180.356c1.151,2.049,5.108,1.739,7.145,1.86c2.285,0.134,4.516-0.194,6.721-0.774
	c5.69-1.494,11.302-3.558,16.787-5.674c3.42-1.32,7.564-3.023,9.902-5.979c1.272-1.611,1.958-4.117,1.76-6.173
	c-0.762-7.882-11.038-6.172-15.814-3.621c-7.004,3.738-14.991,11.679-12.693,20.424c2.059,7.836,10.297,12.295,17.853,13.089
	c10.738,1.127,20.802-4.43,30.003-9.208c5.226-2.716,10.587-5.14,15.652-8.156c8.192-4.884,15.802-10.649,23.474-16.295
	c8.867-6.525,17.63-13.27,25.463-21.031c5.09-5.044,11.093-9.686,14.167-16.401c1.182-2.584,1.805-6.361,0.545-9.011
	c-1.958-4.115-7.967-1.646-10.624,0.488c-4.582,3.676-7.889,8.923-10.877,13.898c-6.722,11.195-11.881,23.241-18.537,34.471
	c-1.911,3.224-3.941,6.382-6.152,9.409c-1.015,1.39-12.81,16.255-6.858,16.075c3.725-0.112,6.328-3.355,8.446-6.032
	c2.599-3.289,5.412-5.971,8.62-8.684c4.53-3.83,10.695-9.187,17.021-9.187c10.57,0-0.065,15.935-1.441,20.263
	c-0.794,2.496-0.402,5.485,1.86,7.185c3.314,2.493,6.081-0.383,8.557-2.542c4.548-3.968,9.265-7.989,13.927-11.824
	c3.45-2.839,6.755-5.759,10.353-8.409c1.028-0.759,4.049-2.754,5.534-2.383c2.341,0.586-0.243,8.204-0.6,9.68
	c-0.602,2.486-4.517,13.979,0.737,13.979c7.553,0,31.178-29.631,38.73-29.631c4.765,0,2.793,9.313,2.388,11.729
	c-0.546,3.263-1.489,6.325-2.817,9.354c-0.997,2.274-1.887,5.114-3.77,6.833c-2.573,2.35-4.29,0.072-3.027-2.796
	c1.497-3.404,3.494-6.71,5.718-9.682c2.781-3.716,6.082-7.095,9.51-10.213c2.905-2.644,6.391-5.399,10.394-6.007
	c10.403-1.578,0.467,18.93-0.547,22.371c-0.43,1.462-1.474,4.221-0.638,5.728c1.504,2.706,6.352-1.283,7.795-2.349
	c8.038-5.933,14.69-13.534,22.742-19.464c3.535-2.603,7.307-5.691,11.749-6.499c2.526-0.46,7.849,0.069,8.278,3.51
	c0.437,3.505-5.975,2.544-8.154,2.815c-8.012,0.998-19.126,8.194-20.95,16.469c-0.368,1.667-0.498,5.85,1.667,6.564
	c3.839,1.27,11.104-5.885,13.664-8.072c3.942-3.372,7.677-6.994,11.314-10.689c0.757-0.769,1.555-1.52,2.26-2.336
	c9.515-10.972,19.573-21.663,28.526-33.1c2.214-2.828,4.601-5.924,6.81-8.755c1.981-2.54,7.226-9.174,3.891-11.117
	c-4.03-1.809-11.141,5.667-13.516,9.031c-6.73,9.532-10.365,20.113-14.854,30.999c-1.219,2.956-2.235,6.001-3.001,9.106
	c-1.309,5.302-4.712,15.638-2.575,20.973c1.839,4.588,8.466-0.285,11.915-1.669c3.105-1.245,6.136-2.667,9.25-3.896
	c1.594-0.627,3.202-1.216,4.823-1.771c1.566-0.535,4.197-2.532,5.714-1.073c1.145,1.104,0.58,2.792-1.056,2.794
	c-7.11,0.006-30.163,20.981-35.366,8.533c-2.369-5.67,1.15-14.359,2.748-19.81c3.803-12.97,7.548-27.252,14.064-39.186
	c4.242-7.767,12.729-21.842,23.122-21.205c5.134,0.314,6.058,4.67,5.021,9.429c-1.342,6.156-5.12,11.294-9.109,15.875
	c-7.397,8.498-14.262,17.313-21.993,25.536c-6.918,7.357-13.958,14.763-21.362,21.633c-2.481,2.304-4.864,4.579-7.572,6.582
	c-4.498,3.324-16.463,9.917-18.516,2.743c-1.033-3.605,0.261-7.012,1.903-10.055c-4.917,5.5-10.657,11.082-18.172,12.576
	c-1.278,0.254-3.468,0.549-3.838-1.231c-0.504-2.416,0.41-6.229,0.969-8.591c0.88-3.72,2.426-7.239,3.242-10.981
	c0.333-1.53,1.777-5.66,0.487-7.012c-2.457-2.577-8.502,3.087-10.182,4.535c-4.067,3.51-7.988,7.338-11.297,11.575
	c-0.491,0.629-3.813,4.363-2.83,5.347c1.782,1.783,9.827-21.643,4.794-21.643c-1.782,0-3.811,1.824-5.11,2.808
	c-2.815,2.128-5.526,4.4-8.189,6.714c-5.939,5.151-11.383,10.834-17.791,15.401c-2.25,1.605-8.313,6.039-11.118,2.99
	c-1.831-1.99-1.1-6.576-0.758-9.021c0.206-1.465,0.669-2.772,1.152-4.163c0.506-1.458,3.07-6.884,1.795-8.239
	c-2.14-2.271-13.072,8.499-14.906,10.025c-2.739,2.279-5.059,4.876-7.889,7.039c-3.981,3.042-9.833,9.988-15.219,5.817
	c-5.538-4.285-1.403-10.676,0.381-15.574c0.996-2.736,2.813-6.523,1.715-9.458c-0.875-2.336-3.623-1.218-5.292-0.435
	c-6.684,3.14-12.217,8.879-17.594,13.803c-3.564,3.264-10.886,12.679-16.663,9.959c-6.558-3.089,1.247-12.456,3.544-15.854
	c3.53-5.224,7.361-10.239,10.773-15.542c3.337-5.187,5.681-10.843,8.649-16.229c5.209-9.448,10.853-19.216,18.262-27.124
	c3.372-3.6,7.975-8.6,13.336-8.567c7.62,0.049,6.16,7.267,4.17,12.205c-1.877,4.656-4.304,8.896-7.44,12.827
	c-3.519,4.409-7.856,8.051-12.055,11.782c-4.982,4.428-9.981,8.839-14.968,13.264c-6.522,5.786-13.991,10.882-21.24,15.678
	c-11.841,7.834-24.166,16.037-38.084,19.856c-14.398,3.95-36.78,5.2-39.623-14.34c-0.634-4.372,2.228-8.788,4.705-12.104
	c2.882-3.861,6.046-5.835,10.261-8.07c1.933-1.026,3.949-1.936,6.072-2.49c2.535-0.663,5.131-0.72,7.719-0.384
	c6.334,0.821,11.3,6.38,7.845,12.815c-2.142,3.991-6.303,6.255-10.311,7.981c-4.421,1.902-8.946,3.594-13.566,4.947
	c-1.205,0.354-2.415,0.7-3.634,0.997C192.778,184.359,183.434,187.938,180.5,180.356z"/>
<g>
	<path d="M344.376,155.592c0.833-0.278,1.946-0.556,3.058-0.834"/>
</g>
<path d="M532.519,154.591c0,0-1.275,2.401,1.187,2.527c2.459,0.128,41.735-2.454,44.494-4.94
	C578.199,152.178,535.962,154.768,532.519,154.591z"/>
<g>
	<path d="M556.887,137.315c0,0-20.785,58.628-6.514,59.363c9.053,0.467,19.521-8.044,26.021-13.163
		c11.423-9.004,22.979-19.348,30.857-31.69c4.503-7.054,8.949-15.913,10.761-24.137c0.933-4.235,3.479-11.356-1.802-14.06
		c-10.654-5.455-24.381,46.115-25.996,52.683c-1.063,4.326-2.135,8.754-2.366,13.222c-0.177,3.449,0.329,6.157,0.097,8.28
		c-0.831,7.563-2.564,7.712-2.564,7.712s-4.4,2.404-4.088-3.665c0.313-6.07,18.56-31.443,28.729-30.919
		c10.172,0.524-6.013,33.732,11.7,34.646c7.397,0.381,15.274-2.481,21.657-5.922c6.805-3.668,14.351-8.128,19.567-13.919
		c2.71-3.009,5.71-7.592,6.562-11.615c0.539-2.554,1.434-6.95-1.271-8.634c-2.029-1.262-4.896,0.667-6.386,1.94
		c-2.022,1.73-3.166,4.368-4.427,6.66c-2.324,4.223-4.016,8.825-4.503,13.646c-0.456,4.516,0.929,11.047,5.022,13.588
		c3.406,2.112,8.268,3.407,12.186,3.22c2.44-0.116,5.54-0.598,7.922-1.11c6.223-1.34,20.645-4.707,21.104-13.258
		c0.128-2.392-0.786-4.268-3.336-4.627c2.254-1.2,6.132-0.592,6.769,2.268c0.692,3.113-1.583,6.372-3.62,8.466
		c-6.779,6.971-16.127,11.493-25.779,11.737c-7.406,0.188-17.102-0.771-21.66-7.674c-4.122-6.24-2.967-14.814-0.616-21.479
		c2.071-5.867,4.625-12.185,10.21-15.551c3.225-1.945,7.892-2.617,10.652,0.488c3.297,3.712,1.541,9.603-0.395,13.639
		c-2.143,4.474-4.915,8.287-8.338,11.785c-5.645,5.769-11.942,10.811-19.024,14.728c-8.327,4.608-23.056,9.086-31.247,2.017
		c-7.128-6.152-0.336-19.727-1.572-27.671c-1.528-9.833-14.587,4.438-17.156,7.149c-3.061,3.23-5.899,6.829-8.235,10.633
		c-0.12,0.197-3.294,7.388-1.94,6.886c0,0,2.346-0.868,2.595-5.703c0,0,19.324-71.776,27.526-71.354
		c8.2,0.422-5.433,28.826-5.434,28.828c-2.111,4.398-6.268,8.575-9.293,12.326c-6.285,7.796-13.049,15.382-20.629,21.947
		c-4.426,3.836-9.316,7.409-14.471,10.212c-3.806,2.07-10.977,5.563-14.768,1.602c-3.334-3.485-1.39-10.371-0.481-14.408
		c1.454-6.468,3.356-12.851,5.124-19.237c1.411-5.098,2.964-10.155,4.594-15.185C559.439,139.505,560.567,137.505,556.887,137.315z"
		/>
	<path d="M588.087,176.822c0,0-1.624,10.125-1.624,10.452s1.354,1.603,1.354,1.603l0.192-2.393l0.79-7.585
		c0,0,1.102-3.776,1.102-3.831C589.899,175.012,588.087,176.822,588.087,176.822z"/>
</g>
<path d="M727.705,119.491c-2.168,2.167-0.782,6.86,1.608,8.039c6.196,3.047,16.322-1.812,22.202-3.867
	c9.926-3.47,20.098-7.577,28.396-14.173c4.546-3.613,8.969-7.745,12.076-12.696c1.452-2.316,2.619-4.811,3.422-7.42
	c0.424-1.378,0.773-2.779,0.979-4.205c0.098-0.652-0.108-3.823,0.299-4.19c0,0,1.778-1.59,3.364,0
	c-1.14,9.37-2.352,18.73-3.772,28.062c-2.813,18.429-4.924,37.124-8.837,55.354c-1.171,5.465-2.584,10.872-4.221,16.215
	c-1.614,5.281-3.014,11.206-5.435,16.177c-0.674,1.383-3.092,7.587-5.024,7.588c-2.598,0.004-3.589-6.687-3.909-8.336
	c-0.726-3.765-0.746-7.645-0.432-11.461c0.636-7.767,2.773-15.34,5.052-22.759c4.601-14.968,9.768-29.777,15.778-44.244
	c5.854-14.074,12.245-29.017,22.321-40.664c3.171-3.667,6.797-7.406,11.823-8.082c4.271-0.576,9.183,1.058,12.019,4.427
	c4.429,5.256,5.406,12.769,3.864,19.129c-3.329,13.733-10.263,27.91-20.717,37.625c-2.723,2.529-5.755,4.665-8.973,6.534
	c-4.02,2.336-9.151,3.255-13.677,4.308c-4.262,0.989-9.686,2.343-14.074,2.009c-3.313-0.254-9.995-1.09-10.008-5.602
	c0.006,1.75,9.488,1.99,10.694,2.017c4.359,0.106,8.771-0.358,12.997-1.422c7.278-1.83,14.547-5.994,19.675-11.253
	c6.12-6.274,11.137-13.931,15.234-21.751c4.155-7.932,6.389-18.428,3.861-27.228c-4.409-15.387-20.414,4.641-24.464,10.811
	c-4.273,6.511-7.323,13.685-10.669,20.687c-3.181,6.645-6.531,13.212-9.816,19.808c-0.702,1.418-1.677,2.892-2.189,4.395
	c0,0-20.007,58.895-13.463,58.895c6.548,0,12.147-41.507,12.147-41.507s7.288-48.398,7.296-48.422
	c-0.68,4.493-11.706,11.48-15.12,14.011c-8.366,6.198-17.694,11.138-27.771,13.87C742.5,132.271,712.308,134.89,727.705,119.491z"/>
<path d="M807.377,188.777c2.488,1.95,6.413,2.268,9.5,2.225c4.92-0.068,10.393-5.77,13.405-8.724
	c5.069-4.979,10.701-10.713,13.367-17.219c1.54-3.761,2.325-8.596,1.82-12.618c-0.23-1.832-0.688-5.072-3.252-5.174
	c-2.488-0.096-4.613,2.821-5.996,4.438c-1.877,2.195-3.203,4.771-4.162,7.424c-1.639,4.514-2.201,9.283-1.72,14.019
	c0.441,4.348,1.251,9.117,4.106,12.698c1.611,2.024,5.451,3.842,7.984,4.537c3.033,0.833,6.208,0.513,9.229-0.217
	c6.114-1.48,12.562-4.145,17.22-8.219c2.717-2.383,5.195-5.374,7.072-8.381c2.648-4.225,5.187-8.536,7.573-12.895
	c2.241-4.091,4.203-8.56,7.828-11.776c2.241-1.987,6.155-3.749,8.393-0.88c2.265,2.898,1.864,8.046,1.057,11.368
	c0,0,8.718-15.847,18.192-15.978c9.47-0.131,12.511,13.044,12.587,18.564c0.076,5.523-6.919,29.715,1.66,29.597
	c5.242-0.072,10.765-3.599,15.294-5.803c5.5-2.677,10.976-5.441,16.669-7.742c5.553-2.239,11.794-4.116,17.85-2.696
	c6.271,1.474,11.166,5.93,15.106,10.507c4.738,5.51,8.199,12.568,14.651,16.576c2.374,1.476,5.35,2.077,8.183,1.532
	c4.016-0.773,7.299-2.982,10.778-4.825c2.789-1.476,5.431-3.084,7.876-5.051c1.837-1.475,3.589-3.286,4.529-5.404
	c0.828-1.869,1.142-3.931,0.359-5.862c-1.587-3.907-5.066-1.853-5.859,1.26c-1.164,4.577,0.396,10.648,2.789,14.674
	c2.235,3.756,7.367,4.317,11.028,2.315c8.986-4.914,7.774-17.48,15.654-23.397c2.072-1.556,5.05-2.056,7.66-1.758
	c1.997,0.233,4.021,0.73,5.875,1.458c2.023,0.796,2.852,2.002,4.438,3.169c-3.388-2.488-6.855-4.326-11.339-4.276
	c-8.81,0.099-11.214,9.216-14.253,15.217c-2.243,4.419-4.409,9.878-9.791,11.716c-5.446,1.861-9.596-2.691-11.062-7.186
	c-1.325-4.058-3.444-9.663-1.663-13.789c0.766-1.777,2.689-3.757,4.968-3.152c2.218,0.59,2.732,3.142,2.675,4.995
	c-0.146,4.562-2.637,7.565-6.104,10.505c-2.832,2.403-6.185,4.201-9.377,6.142c-3.219,1.953-6.732,3.971-10.687,4.056
	c-5.077,0.107-9.185-3.574-12.402-6.814c-4.117-4.146-7.772-8.685-11.599-13.056c-3.099-3.533-6.496-7.515-11.516-8.566
	c-5.678-1.188-11.935,0.535-17.069,2.787c-3.198,1.405-6.124,3.288-9.329,4.679c-7.81,3.385-15.52,10.135-24.69,9.663
	c-2.107-0.109-4.09-1.064-5.331-2.707c-2.047-2.718-1.964-6.526-1.768-9.697c0.263-4.213,1.022-8.385,1.358-12.59
	c0.479-5.972,1.564-13.224-2.026-18.575c-1.421-2.113-3.597-3.065-6.246-2.48c-5.33,1.181-10.404,7.163-12.797,11.267
	c-3.548,6.087-5.639,12.772-8.044,19.313c-1.314,3.564-2.527,7.044-3.877,10.594c-0.948,2.507-2.062,5.849-2.024,8.563
	c0,0,0.162,2.006-2.518,2.043c-7.375,0.103,2.96-19.256,3.862-21.71c1.388-3.774,2.524-7.615,3.548-11.485
	c1.058-4.001,2.82-9.859,0.869-13.867c-1.754-3.606-5.229-0.271-6.789,1.684c-4.013,5.021-6.523,11.06-9.696,16.545
	c-1.901,3.29-3.978,6.488-6.383,9.476c-3.178,3.944-5.968,7.445-10.708,9.815c-4.836,2.421-10.182,3.758-15.67,3.833
	c-25.467,0.353-22.501-27.673-22.501-27.673s3.581-22.264,15.24-22.425c10.409-0.144,7.866,13.24,6.368,19.137
	c-0.455,1.785-1.008,3.518-1.729,5.227c-2.037,4.831-5.266,9.132-8.974,12.972c-4.604,4.764-9.364,10.262-15.922,12.681
	c-2.588,0.956-5.436,1.224-8.061,0.229C811.147,192.872,807.366,191.065,807.377,188.777z"/>
<g>
	<path d="M1131.953,97.408l18.584,13.262l-38.513,53.973c0,0-4.64,0.118-10.813-4.286c-6.174-4.406-7.534-8.716-7.534-8.716
		L1131.953,97.408z"/>
	<path d="M1139.324,87.089l18.579,13.259l40.615-56.919c0,0-18.224-13.756-24.5-4.96
		C1167.743,47.263,1139.324,87.089,1139.324,87.089z"/>
	<path d="M1143.637,72.14c0,0,3.159,1.405,4.901-1.034c1.738-2.439,24.63-34.518,24.63-34.518s-3.561-0.842-5.568,1.972
		C1165.59,41.374,1143.637,72.14,1143.637,72.14z"/>
	<rect x="1133.513" y="94.121" transform="matrix(0.814 0.5808 -0.5808 0.814 270.3622 -646.6241)" width="22.832" height="9.512"/>
	<path d="M1091.818,153.652c0,0,3.59,5.463,7.799,8.468c4.211,3.003,10.544,4.621,10.544,4.621l-16.308,8.926l-4.68-3.339
		L1091.818,153.652z"/>
	<polygon points="1089.012,173.813 1092.453,176.272 1087.799,179.001 	"/>
</g>
</svg>
